<?xml version="1.0" encoding="UTF-8" standalone="no"?>
<!DOCTYPE svg PUBLIC "-//W3C//DTD SVG 1.1//EN" "http://www.w3.org/Graphics/SVG/1.1/DTD/svg11.dtd">
<svg xmlns="http://www.w3.org/2000/svg" version="1.1" viewBox="0.00 0.00 512.00 512.00">
<path fill="#000000" d="
  M 117.78 178.78
  Q 162.95 133.74 208.00 88.59
  Q 214.57 82.00 218.01 80.06
  C 232.28 72.02 250.48 79.63 254.91 95.32
  Q 256.00 99.21 256.00 108.28
  Q 256.00 258.77 255.93 409.25
  C 255.92 432.22 228.68 443.98 212.09 427.41
  Q 164.92 380.32 117.75 333.15
  A 1.30 1.30 0.0 0 0 116.83 332.77
  Q 86.30 332.80 55.64 332.76
  Q 46.65 332.75 42.54 331.29
  C 32.34 327.68 25.65 317.94 25.63 307.00
  Q 25.56 256.38 25.48 205.75
  C 25.46 191.21 36.21 179.41 51.00 179.38
  Q 83.95 179.31 116.90 179.15
  A 1.23 1.22 21.9 0 0 117.78 178.78
  Z"
/>
<path fill="#000000" d="
  M 420.72 256.43
  Q 436.52 272.44 452.52 288.22
  Q 463.53 299.07 459.98 313.75
  C 455.30 333.05 430.67 338.88 416.90 325.10
  Q 400.58 308.77 384.33 292.51
  A 0.45 0.45 0.0 0 0 383.69 292.51
  Q 370.37 305.83 357.02 319.19
  Q 347.97 328.25 343.73 330.32
  C 335.05 334.55 324.92 333.21 317.18 327.46
  C 305.01 318.43 303.79 300.17 314.82 289.07
  Q 331.04 272.78 347.43 256.38
  A 0.55 0.55 0.0 0 0 347.43 255.60
  Q 332.45 240.67 317.73 225.89
  Q 311.70 219.84 309.72 215.85
  C 299.17 194.68 322.15 171.09 343.86 181.74
  Q 347.92 183.74 355.18 190.98
  Q 369.41 205.18 383.61 219.42
  Q 384.01 219.82 384.42 219.42
  Q 399.08 204.71 413.78 190.06
  Q 420.24 183.61 424.24 181.69
  C 449.44 169.56 473.69 202.06 453.21 222.71
  Q 436.92 239.14 420.72 255.64
  Q 420.33 256.03 420.72 256.43
  Z"
/>
</svg>
